<svg width="76.000000pt" height="72.000000pt" viewBox="0 0 76.000000 72.000000" xmlns="http://www.w3.org/2000/svg">
  <g transform="translate(0.000000,72.000000) scale(0.100000,-0.100000)" fill="#5489ff" stroke="none">
    <path d="M315 609 c-28 -27 -87 -82 -132 -122 -45 -39 -79 -75 -77 -79 3 -4
23 -8 44 -8 39 0 39 0 42 -122 3 -123 3 -123 183 -123 180 0 180 0 183 123 3
122 3 122 31 122 66 0 61 9 -58 119 -64 59 -122 115 -130 124 -7 10 -19 17
-25 17 -7 0 -34 -23 -61 -51z m165 -86 c86 -81 91 -88 69 -93 -23 -6 -24 -8
-27 -128 -3 -122 -3 -122 -147 -122 -144 0 -144 0 -147 122 -3 120 -4 122 -27
128 -22 5 -17 12 69 93 51 48 98 87 105 87 7 0 54 -39 105 -87z" />
    <path d="M279 419 c-10 -10 -19 -32 -19 -48 0 -23 11 -38 49 -70 27 -23 55
-41 63 -41 9 0 36 18 62 41 37 33 46 47 46 74 0 18 -7 38 -16 46 -9 7 -47 14
-91 15 -62 2 -78 -1 -94 -17z m117 -20 c20 9 30 9 40 0 8 -6 14 -19 14 -29 0
-19 -60 -70 -81 -70 -17 0 -79 60 -79 76 0 22 31 33 57 21 17 -7 30 -7 49 2z" />
  </g>
</svg>