<?xml version="1.0" encoding="UTF-8"?>
<!DOCTYPE svg PUBLIC "-//W3C//DTD SVG 1.1//EN" "http://www.w3.org/Graphics/SVG/1.1/DTD/svg11.dtd">
<!-- <svg xmlns="http://www.w3.org/2000/svg" version="1.1" width="20px" height="20px" style="shape-rendering:geometricPrecision; text-rendering:geometricPrecision; image-rendering:optimizeQuality; fill-rule:evenodd; clip-rule:evenodd" xmlns:xlink="http://www.w3.org/1999/xlink">
<g><path style="opacity:0.786" fill="#1f1f21" d="M 7.5,-0.5 C 8.83333,-0.5 10.1667,-0.5 11.5,-0.5C 13.8333,2.5 16.5,5.16667 19.5,7.5C 19.5,11.1667 19.5,14.8333 19.5,18.5C 18.8333,18.5 18.5,18.8333 18.5,19.5C 12.5,19.5 6.5,19.5 0.5,19.5C 0.5,18.8333 0.166667,18.5 -0.5,18.5C -0.5,14.8333 -0.5,11.1667 -0.5,7.5C 2.5,5.16667 5.16667,2.5 7.5,-0.5 Z M 8.5,1.5 C 11.391,3.88436 14.2243,6.55103 17,9.5C 17.4974,12.146 17.6641,14.8127 17.5,17.5C 15.8333,17.5 14.1667,17.5 12.5,17.5C 12.5,15.5 12.5,13.5 12.5,11.5C 10.5,11.5 8.5,11.5 6.5,11.5C 6.5,13.5 6.5,15.5 6.5,17.5C 4.83333,17.5 3.16667,17.5 1.5,17.5C 1.33591,14.8127 1.50258,12.146 2,9.5C 4.7585,7.24878 6.92517,4.58212 8.5,1.5 Z M 8.5,13.5 C 9.58617,13.62 10.2528,14.2867 10.5,15.5C 10.1667,16.1667 9.83333,16.8333 9.5,17.5C 8.57131,16.3112 8.23798,14.9778 8.5,13.5 Z"/></g>
</svg> -->
<svg xmlns="http://www.w3.org/2000/svg" width="76.000000pt" height="72.000000pt" viewBox="0 0 76.000000 72.000000" xmlns="http://www.w3.org/2000/svg">
        <g transform="translate(0.000000,72.000000) scale(0.100000,-0.100000)" fill="#5489ff" stroke="none">
            <path d="M315 609 c-28 -27 -87 -82 -132 -122 -88 -77 -92 -87 -33 -87 39 0
        39 0 42 -122 3 -123 3 -123 183 -123 180 0 180 0 183 123 3 122 3 122 31 122
        66 0 61 9 -58 119 -64 59 -122 115 -130 124 -21 26 -33 21 -86 -34z m165 -86
        c86 -81 91 -88 69 -93 -23 -6 -24 -8 -27 -128 -3 -122 -3 -122 -147 -122 -144
        0 -144 0 -147 122 -3 120 -4 122 -27 128 -22 5 -17 12 69 93 51 48 98 87 105
        87 7 0 54 -39 105 -87z" />
            <path d="M279 419 c-34 -34 -25 -72 30 -118 60 -51 67 -51 125 0 50 44 62 93
        30 120 -27 22 -162 21 -185 -2z m117 -20 c58 26 73 -32 20 -73 -44 -33 -53
        -33 -93 6 -48 47 -32 91 24 65 17 -7 30 -7 49 2z" />
        </g>
</svg>